<?xml version="1.0" encoding="utf-8"?>
<!-- Generator: Adobe Illustrator 18.0.0, SVG Export Plug-In . SVG Version: 6.00 Build 0)  -->
<!DOCTYPE svg PUBLIC "-//W3C//DTD SVG 1.1//EN" "http://www.w3.org/Graphics/SVG/1.1/DTD/svg11.dtd">
<svg version="1.1" id="Layer_1" xmlns="http://www.w3.org/2000/svg" xmlns:xlink="http://www.w3.org/1999/xlink" x="0px" y="0px"
	 viewBox="0 0 216 216" enable-background="new 0 0 216 216" xml:space="preserve">
<g>
	<path fill="#010101" d="M164,153.1c0-17.8-9-28.8-36.4-44l-13.1-7.3c-1.8-0.9-6.7-3.8-13.7-8.2c-21-13.1-30-25.9-30-43.1
		c0-17,9.3-31,23.4-37.7C46.1,19.3,8.8,60.6,8.8,110.5c0,28.2,11.9,53.6,30.9,71.6c-5.1-8.2-7.9-17.7-7.9-28.2
		c0-28.8,21.3-50.7,49.2-50.7c23.3,0,41.6,14.6,41.6,32.9c0,35.4-36.7,37.3-37.8,18c-1.1-19,21.4-5.3,21.4-22.1
		c0-11.9-10.8-21.3-24.7-21.3c-19.5,0-34.9,17.2-34.9,38.4c0,29.4,26.8,53.9,59.7,53.9C139,203.1,164,181.3,164,153.1z"/>
	<path fill="#010101" d="M142.5,18.4v31h-3.8c-0.3-19.2-11.1-31.2-27.7-31.2c-13.4,0-24.2,10.5-24.2,23.9c0,7.6,3.8,14.3,11.1,19.8
		c5,4.1,7.6,5.5,18.9,11.6l20.7,11.1c12.8,7,16,8.7,22.4,13.7c15.1,11.9,23,27.7,23,46.3c0,19.9-8.4,37-22.6,49
		c27.4-17.5,45.6-48.2,45.6-83.1C206,68.6,179.6,32.6,142.5,18.4z"/>
</g>
<path opacity="0.21" fill="#FFFFFF" d="M108,115.5c35.3,0,67.1-10.6,89.8-27.5c-10.3-40-46.6-69.5-89.8-69.5
	c-43.2,0-79.5,29.5-89.8,69.5C40.9,105,72.7,115.5,108,115.5z"/>
</svg>
